<svg width="176" height="177" viewBox="0 0 176 177" fill="none" xmlns="http://www.w3.org/2000/svg">
<path d="M89.2769 140.498C89.3024 148.985 89.4089 158.681 89.6746 169.556C89.7028 170.727 91.2076 170.765 91.3502 169.968C91.505 169.1 91.5077 166.823 91.5024 142.814C90.8204 142.114 90.0812 141.352 89.2778 140.498L89.2769 140.498Z" fill="#FFEBEB"/>
<path d="M143.238 52.339C142.533 47.884 140.925 43.882 137.482 40.6995C131.497 35.1647 130.468 36.2781 86.2946 36.102C45.5374 35.9391 38.5422 30.4734 39.4636 88.0718C39.4759 88.855 39.3219 89.2002 38.4287 89.1639C31.5172 88.8851 31.0913 89.6967 31.2523 95.7828C31.3174 98.2307 31.2162 97.5714 88.8122 97.1705C89.9369 97.1625 89.2848 110.189 89.269 135.247C89.9941 136.074 90.7465 136.902 91.4989 137.713V98.2759C91.4989 97.1979 91.4918 97.1944 92.6068 97.19C100.112 97.1625 99.9354 96.7722 99.9372 98.3183C99.9425 107.475 100.244 131.451 100.507 148.071C101.276 149.261 101.814 150.184 102.171 150.503C102.348 150.377 102.582 150.098 102.859 149.701C102.758 141.067 102.567 128.675 102.303 110.895C102.09 96.5713 101.585 97.0687 102.775 97.1439C103.398 97.1829 139.849 97.1528 143.259 96.6528C144.204 96.5138 144.411 96.3023 144.51 95.3244C145.062 89.9029 144.82 62.3493 143.236 52.339H143.238ZM33.726 95.3297C32.9815 95.3483 32.736 95.2111 33.0387 92.1233C33.2402 90.0728 35.2211 91.0127 77.8307 90.7277C78.591 90.7233 78.2531 90.879 78.3746 94.7642C78.4018 95.6262 42.3588 95.1155 33.726 95.3297ZM78.3517 88.4984C78.3622 89.3843 78.357 88.9444 42.1098 89.0816C40.7924 89.086 41.6856 88.8639 41.2738 77.6129C40.971 69.3284 41.9144 57.088 44.5403 48.4645C47.0386 40.2597 56.0322 37.9605 59.4651 38.1658C81.4405 39.4835 78.1026 68.1469 78.3508 88.4975L78.3517 88.4984ZM142.55 93.1234C142.512 95.235 142.713 94.804 140.784 94.8819C136.185 95.0668 139.501 94.9615 92.033 95.1607C80.5684 95.2093 80.6344 95.5801 80.6115 94.4819C80.5385 91.0737 81.202 83.0202 80.6511 70.8276C80.0052 56.5401 79.3584 45.2874 67.5233 37.887C134.789 37.887 132.644 38.4959 136.756 43.1545C140.826 47.7663 143.262 53.3435 142.551 93.1225L142.55 93.1234Z" fill="#FFEBEB"/>
<path d="M102.204 155.092C101.625 155.754 101.107 156.003 100.639 155.867C100.738 161.421 100.82 165.069 100.862 165.247C101.028 165.942 100.597 169.369 101.857 169.463C102.755 169.531 103.047 169.772 102.91 154.386C102.665 154.613 102.468 154.79 102.204 155.092Z" fill="#FFEBEB"/>
<path d="M109.796 58.835C131.129 58.835 129.292 58.3217 129.412 60.6386C129.602 64.3017 129.29 67.7868 129.276 69.9665C129.271 70.5639 129.057 70.8887 128.447 70.8861C113.411 70.8383 113.423 71.5666 113.385 69.3922C113.284 63.4892 113.808 63.4733 112.734 63.4556C86.6219 63.0078 86.841 63.2936 86.6721 61.2935C86.4961 59.2129 86.7759 58.8421 88.8325 58.8341H109.795L109.796 58.835Z" fill="#FFEBEB"/>
<path d="M107.569 93.3121C84.4281 93.0298 85.3767 93.1749 85.3679 92.205C85.3591 91.2199 85.3556 91.5182 119.464 91.6058C140.327 91.6589 140.287 91.1704 140.31 92.4085C140.335 93.7962 140.313 93.1723 112.894 93.1714C112.644 93.1714 107.569 93.3121 107.569 93.3121Z" fill="#FFEBEB"/>
<path d="M49.8142 124.599C49.867 125.625 48.5786 125.76 48.5751 124.572C48.5144 98.6803 48.7467 98.6865 49.3178 98.7024C49.7904 98.7157 49.7763 99.2317 49.7842 99.5936C50.1644 120.756 49.7006 122.367 49.8142 124.599Z" fill="#25AB75"/>
<path d="M48.8576 130.995C45.841 130.959 45.8278 126.073 49.009 126.133C52.1576 126.193 52.2166 131.036 48.8567 130.995H48.8576Z" fill="#25AB75"/>
<path d="M54.2749 125.221C55.0405 125.144 56.093 125.646 55.9592 126.079C55.785 126.643 55.6186 126.104 52.6011 127.082C51.4747 127.447 50.747 125.577 54.2749 125.221Z" fill="#25AB75"/>
<path d="M43.8733 127.271C42.108 127.294 41.6442 127.621 41.5122 127.108C41.2702 126.166 45.9703 125.332 45.8955 126.758C45.8612 127.423 45.276 127.253 43.8733 127.271Z" fill="#25AB75"/>
<path d="M42.6237 130.319C40.8725 130.197 43.5274 127.953 45.0991 128.258C45.8137 128.396 45.8031 129.515 45.3156 129.61C44.3722 129.795 43.4562 130.069 42.6237 130.319Z" fill="#25AB75"/>
<path d="M54.223 129.214C53.3007 129.225 52.5386 129.353 52.4225 128.66C52.2342 127.533 55.3089 127.666 56.1405 128.508C56.8207 129.198 55.2825 129.201 54.223 129.214Z" fill="#25AB75"/>
<path d="M52.6794 130.029C54.5054 129.984 56.1343 133.029 54.8469 132.421C52.345 131.239 51.8179 131.123 52.0256 130.441C52.125 130.115 52.4022 130.011 52.6794 130.029Z" fill="#25AB75"/>
<path d="M45.6843 130.652C46.5969 130.645 46.6277 131.5 46.0601 131.831C43.6181 133.258 43.6814 133.19 43.4826 133.002C42.9343 132.486 44.3432 130.663 45.6843 130.652Z" fill="#25AB75"/>
<path d="M47.9362 82.8474C46.5758 80.7721 46.3751 81.4925 45.1554 79.1517C44.9953 78.8419 45.1185 78.4906 45.6306 78.7216C46.9929 79.3357 50.3791 82.943 52.0406 84.2537C55.3494 86.8653 57.919 85.9945 63.5087 86.2317C69.0985 86.4688 70.2363 86.075 72.886 84.7139C73.4298 84.4342 73.9939 84.0802 74.2966 84.6042C74.5994 85.1281 73.9596 85.313 73.6164 85.5838C71.2175 87.4733 68.4042 87.7601 65.5134 87.7078C56.4476 87.5441 53.915 87.8158 50.6889 85.1785C49.2571 84.0085 43.4218 84.1271 43.4843 83.2528C43.5195 82.7563 44.1355 82.8474 47.9362 82.8474Z" fill="#25AB75"/>
<path d="M61.2198 75.1283C61.2718 75.6699 61.0051 76.0407 60.4534 76.0513C58.5666 76.0885 60.6813 73.7557 57.1173 70.7697C54.9032 68.9147 51.194 69.6262 51.2961 75.1531C51.3163 76.239 50.2823 76.1213 50.1151 75.3115C48.1422 65.7933 60.2378 64.8331 61.2198 75.1283Z" fill="#25AB75"/>
<path d="M73.4721 73.5493C73.5504 74.6441 73.2662 76.3946 72.2498 76.1309C71.023 75.8132 72.1046 74.3361 71.7094 72.8688C70.723 69.2137 66.6354 71.5714 64.2576 74.6078C63.3864 75.7202 63.243 76.2344 62.8364 76.0265C62.0743 75.6353 63.4286 72.944 64.7874 71.5784C68.603 67.7429 73.4721 68.4455 73.4721 73.5493Z" fill="#25AB75"/>
<path d="M67.4133 68.5448C67.5013 69.0687 66.638 69.767 66.0229 68.982C65.3998 68.1881 64.2048 65.4234 61.7338 67.243C60.4164 68.2129 60.214 69.844 59.4519 69.4245C58.5605 68.9342 59.8127 65.2384 63.2148 64.8862C65.3858 64.6614 67.2962 66.7677 67.4142 68.5439L67.4133 68.5448Z" fill="#25AB75"/>
<path d="M70.8752 76.5684C75.6228 76.5525 76.7879 79.4287 74.4093 78.819C70.3463 77.7764 67.973 78.488 67.7468 77.7136C67.437 76.6534 70.1096 76.6339 70.8761 76.5684H70.8752Z" fill="#25AB75"/>
<path d="M54.3426 77.5799C54.2766 77.2843 54.4746 77.0586 54.7061 76.9754C59.7476 75.1576 64.152 78.8348 61.1072 78.279C55.9768 77.3418 54.5415 78.4622 54.3426 77.5799Z" fill="#25AB75"/>
<path d="M71.5334 84.3121C71.3011 84.1209 71.3205 83.8209 71.4507 83.612C74.3037 79.0543 80.0351 79.2322 77.293 80.6774C72.6748 83.1129 72.2304 84.8838 71.5334 84.3121Z" fill="#25AB75"/>
<path d="M48.4141 75.8877C55.3573 78.0391 53.5084 81.2862 52.5879 80.1994C50.7681 78.0506 46.1815 76.0541 48.4141 75.8877Z" fill="#25AB75"/>
<path d="M64.0499 78.9659C63.0872 78.8455 63.0062 77.9826 63.617 77.6446C66.051 76.2958 67.2126 74.5037 67.6086 74.8019C68.1666 75.2232 65.9956 78.7712 64.0499 78.9659Z" fill="#25AB75"/>
<path d="M64.3843 83.7453C64.3535 83.3312 64.4081 83.3436 68.4675 80.7788C68.6321 80.6744 68.8565 80.4186 69.0598 80.6532C69.755 81.4532 64.5383 85.8233 64.3843 83.7453Z" fill="#25AB75"/>
<path d="M58.5165 80.8385C58.5394 80.0827 58.8157 80.0845 59.173 80.4642C61.4601 82.8908 61.9714 83.29 61.4662 83.8236C60.7798 84.5449 58.8078 82.5607 58.5165 80.8385Z" fill="#25AB75"/>
<path d="M81.6094 126.079C82.331 123.019 79.4446 120.277 82.0406 116.848C83.5674 114.832 86.2365 115.183 86.4996 117.666C86.7988 120.5 84.8126 122.886 83.7162 123.684C78.2707 127.646 93.7094 140.875 97.7724 145.992C102.678 152.168 101.074 155.72 107.833 142.955C108.879 140.981 108.555 139.09 107.918 137.148C107.632 136.274 104.543 133.803 105.278 129.946C105.777 127.326 108.33 127.371 109.202 129.6C110.678 133.376 107.575 133.924 109.726 138.847C111.121 135.687 112.669 131.889 113.195 128.473C113.555 126.138 112.667 122.258 114.674 118.988C117.989 113.586 124.33 118.144 116.238 124.925C114.921 126.029 114.702 125.933 114.72 126.635C114.844 131.281 112.565 135.304 112.844 135.576C113.123 135.848 114.645 134.827 115.818 132.512C116.342 131.477 117.677 127.798 121.669 128.442C124.068 128.829 124.05 132.005 120.116 134.168C117.174 135.787 115.733 135.153 115.465 135.39C113.747 136.909 112.231 136.814 111.754 138.024C109.722 143.182 107.553 146.26 107.211 147.215C108.643 147.134 109.403 145.487 111.289 143.92C113.623 141.979 117.161 142.341 117.477 144.345C117.794 146.348 114.808 147.56 112.743 147.471C109.94 147.351 110.151 146.742 109.556 147.217C107.62 148.767 106.974 147.838 105.688 149.514C102.403 153.798 103.066 153.03 101.991 154.258C100.984 155.408 100.366 154.878 99.8404 153.165C99.2297 151.175 98.1763 148.019 94.1565 144.051C85.1409 135.148 86.592 134.68 83.3026 134.548C80.0202 134.416 77.4532 135.014 75.8815 133.05C74.0951 130.818 75.8226 127.797 78.7151 128.87C82.5106 130.279 81.5839 133.743 84.2679 133.27C81.7995 129.383 80.4716 127.576 78.9228 123.799C77.2596 119.743 73.5742 120.589 69.6274 117.71C65.1974 114.477 71.3258 108.751 74.837 118.164C75.2963 119.391 75.6545 118.651 77.4118 119.892C76.0822 115.066 75.3368 107.944 75.3438 104.477C75.3606 96.7598 84.3814 98.9768 79.0161 108.387C77.264 111.46 77.1822 110.958 77.543 113.014C78.8436 120.418 79.479 121.318 81.6077 126.07L81.6094 126.079ZM76.9947 109.179C77.6494 107.382 79.8389 104.7 79.1551 102.146C78.7345 100.574 76.751 101.35 76.619 103.295C76.487 105.239 76.4993 107.086 76.9947 109.179ZM116.53 133.833C117.871 134.3 123.12 131.438 122.104 129.875C121.728 129.297 121.058 129.361 120.426 129.483C118.027 129.944 117.355 131.938 116.53 133.833ZM114.688 124.304C117.579 122.147 119.432 118.932 118.482 118.203C117.471 117.427 114.906 119.62 114.688 124.304ZM82.4384 122.958C84.2626 120.632 84.8478 120.122 85.0124 118.835C85.0951 118.191 85.2606 117.34 84.5504 117.053C83.8077 116.753 83.2814 117.436 82.9004 118.021C81.9148 119.532 82.2202 121.171 82.4384 122.958ZM81.2231 133.229C80.2314 131.947 79.5177 130.858 78.3842 130.235C77.2508 129.612 75.9009 130.37 76.6656 131.95C77.3872 133.444 79.7051 133.318 81.2231 133.228V133.229ZM110.938 145.972C111.541 146.282 114.381 146.592 115.844 145.448C117.978 143.782 113.164 142.566 110.938 145.972ZM107.576 134.956C108.17 132.795 108.743 131.449 108.108 129.91C107.077 127.414 104.655 130.56 107.576 134.956ZM73.5425 118.372C72.3589 116.081 72.1591 115.387 71.0521 114.699C69.5191 113.743 67.1449 115.624 73.5425 118.372Z" fill="#25AB75"/>
<path d="M87.3057 151.566C85.6152 150.232 84.1183 148.636 82.1806 147.647C80.491 146.785 82.5634 145.745 81.3463 142.637C79.5309 138 72.1257 142.973 82.478 149.672C83.4821 150.322 84.4096 151.094 85.3565 151.829C85.7701 152.149 86.0429 152.214 84.3005 152.994C84.084 153.091 81.6068 150.864 80.439 152.757C79.5194 154.25 80.7074 155.814 82.3882 155.341C84.7898 154.664 85.2465 153.431 86.519 153.458C86.8305 153.464 87.0795 153.513 87.3294 153.661L87.3057 151.566ZM80.2023 146.464C76.3805 141.997 79.3162 141.313 80.0483 142.911C80.6766 144.283 80.3026 145.299 80.2023 146.464ZM81.4158 153.452C81.767 153.046 82.6725 153.553 82.9532 153.908C81.7986 154.785 80.9081 154.04 81.4158 153.452Z" fill="#25AB75"/>
<path d="M84.4369 27.7484C78.9791 23.8039 80.4681 20.0365 74.1409 18.1497C71.4842 17.3576 68.9339 16.4947 67.9193 13.1671C66.8043 9.51119 67.071 8.51468 63.697 7.82792C61.9001 7.46241 58.5737 7.43232 58.7426 6.50838C58.8042 6.17385 59.1527 6.22784 59.4123 6.21456C74.0414 5.50479 64.7838 14.1654 73.9077 16.3921C78.1158 17.4204 79.611 18.9471 81.5065 21.9764C84.3885 26.5837 88.073 27.3457 87.6295 28.6953C87.472 29.1732 86.7002 29.0405 86.1775 29.0936C74.3433 30.2813 66.8422 20.2878 67.775 19.5046C68.787 18.655 75.8727 28.2626 84.4378 27.7493V27.7484H84.4369Z" fill="#25AB75"/>
<path d="M75.203 33.5105C75.2796 34.2194 74.4594 34.5902 74.199 33.7211C72.7874 29.0103 72.9652 28.574 72.0245 28.9324C70.8303 29.3873 70.0577 28.6386 70.6086 30.1767C70.9007 30.9918 71.8027 33.8371 70.9597 34.0238C70.503 34.1247 70.4669 34.0194 68.9172 30.0218C68.6963 29.4528 68.4288 29.1687 67.723 29.0191C55.1848 26.3562 61.0535 13.1794 55.836 7.45346C54.7369 6.24721 53.7583 6.39677 54.0619 5.71798C54.4852 4.7728 57.6585 6.36403 58.6212 8.52254C61.1486 14.1919 59.4554 17.1885 61.7769 22.2179C65.6418 30.5936 73.2776 25.5756 74.4586 28.9271C74.9822 30.4139 75.1458 31.9494 75.203 33.5105Z" fill="#25AB75"/>
<path d="M84.0972 23.1709C83.2718 23.5382 82.4877 22.8523 83.3958 22.0478C88.6098 17.4246 86.9202 12.3429 87.9692 12.4049C89.496 12.4942 89.4177 20.8017 84.0972 23.1718V23.1709Z" fill="#25AB75"/>
<path d="M82.1568 12.7229C82.1207 15.6478 80.469 17.9356 79.6057 17.2001C79.325 16.9603 79.332 16.6328 79.523 16.3231C81.7467 12.7265 79.229 8.86078 79.9814 8.56165C81.1105 8.11473 82.0318 11.299 82.1568 12.7229Z" fill="#25AB75"/>
<path d="M85.5633 12.8474C85.6398 13.7315 85.0942 15.2147 84.4122 15.0183C84.1614 14.9466 84.0717 14.7351 84.1218 14.5138C84.6595 12.15 82.8995 8.63742 83.4847 8.38785C84.3594 8.01438 85.536 11.0074 85.5633 12.8465V12.8474Z" fill="#25AB75"/>
<path d="M61.8297 10.3651C61.9626 9.12873 63.7437 9.20572 63.6988 10.3598C63.6478 11.6545 61.8966 11.6182 61.8297 10.3651Z" fill="#25AB75"/>
</svg>
