<svg width="26" height="23" viewBox="0 0 26 23" fill="none" xmlns="http://www.w3.org/2000/svg">
<g clip-path="url(#clip0_764_1131)">
<path d="M23.9367 7.37057C23.6037 7.03215 23.0104 6.98765 22.6126 7.26986L20.0057 9.13295L18.8069 6.6059C18.7642 6.51104 18.6995 6.43141 18.6252 6.36115C18.3802 5.89743 17.9549 5.49928 17.3686 5.26859C17.1139 5.17023 16.851 5.11753 16.5881 5.09177C16.5303 5.06601 16.478 5.03205 16.412 5.01448L11.8244 3.9266C11.567 3.86688 11.3083 3.90553 11.0963 4.01092C10.8444 4.08352 10.6283 4.23927 10.5251 4.46527L8.79769 8.24415C8.6105 8.65518 8.85 9.1189 9.33449 9.2805C9.81623 9.43976 10.3627 9.23483 10.5512 8.82263L12.0102 5.63161L14.0996 6.12578C14.0487 6.19604 13.9936 6.26162 13.9523 6.33656L11.2738 11.2759C11.2353 11.3485 11.2147 11.4223 11.1871 11.4972L7.93194 16.1403L2.48414 17.6908C1.86751 18.083 1.73675 18.822 2.19234 19.3466C2.65068 19.8724 3.52194 19.9836 4.13719 19.596L9.71162 17.9624C9.8823 17.857 10.0062 17.7189 10.0998 17.5701C10.17 17.5069 10.2498 17.4566 10.3035 17.3781L12.2442 14.6098L15.6893 17.1076L12.0033 20.6417C11.4954 21.1289 11.5464 21.8795 12.1217 22.3104C12.6957 22.7449 13.5752 22.6992 14.0858 22.2097L18.6858 17.8008C18.8289 17.665 18.9143 17.5081 18.9721 17.3441C19.0065 17.2551 19.0065 17.1626 19.0147 17.0701C19.0147 17.0233 19.0354 16.9811 19.0312 16.9378C19.0189 16.6146 18.8647 16.3008 18.5536 16.0771L15.3838 13.7772C15.6123 13.5922 15.8063 13.372 15.9467 13.1132L18.0003 9.32968L18.6582 10.8204C18.6858 10.9527 18.7381 11.0827 18.8482 11.1916C18.9473 11.2923 19.0739 11.3591 19.2088 11.4059C19.2226 11.4118 19.2391 11.4129 19.2556 11.4164C19.3409 11.4422 19.4276 11.4668 19.5171 11.4703C19.6231 11.4785 19.7305 11.4668 19.8392 11.441C19.8419 11.4399 19.8433 11.4399 19.8433 11.4399C19.8722 11.434 19.9011 11.4387 19.93 11.4281C20.0828 11.379 20.1998 11.2958 20.3003 11.1986L24.0413 8.49709C24.4391 8.21253 24.2712 7.70899 23.9367 7.37057Z" fill="white"/>
<path d="M19.2047 5.44542C20.6528 5.44542 21.8267 4.44666 21.8267 3.21463C21.8267 1.9826 20.6528 0.983841 19.2047 0.983841C17.7566 0.983841 16.5826 1.9826 16.5826 3.21463C16.5826 4.44666 17.7566 5.44542 19.2047 5.44542Z" fill="white"/>
</g>
<defs>
<clipPath id="clip0_764_1131">
<rect width="25.418" height="21.6252" fill="white" transform="translate(0.387871 0.983841)"/>
</clipPath>
</defs>
</svg>
