<svg width="14" height="14" viewBox="0 0 14 14" fill="none" xmlns="http://www.w3.org/2000/svg">
<path d="M13 1.00006C12.8124 0.812591 12.5581 0.707275 12.293 0.707275C12.0278 0.707275 11.7735 0.812591 11.586 1.00006L6.99997 5.58606L2.41397 1.00006C2.22644 0.812591 1.97213 0.707275 1.70697 0.707275C1.44181 0.707275 1.1875 0.812591 0.99997 1.00006C0.812499 1.18759 0.707184 1.4419 0.707184 1.70706C0.707184 1.97223 0.812499 2.22653 0.99997 2.41406L5.58597 7.00006L0.99997 11.5861C0.812499 11.7736 0.707184 12.0279 0.707184 12.2931C0.707184 12.5582 0.812499 12.8125 0.99997 13.0001C1.1875 13.1875 1.44181 13.2928 1.70697 13.2928C1.97213 13.2928 2.22644 13.1875 2.41397 13.0001L6.99997 8.41406L11.586 13.0001C11.7735 13.1875 12.0278 13.2928 12.293 13.2928C12.5581 13.2928 12.8124 13.1875 13 13.0001C13.1874 12.8125 13.2928 12.5582 13.2928 12.2931C13.2928 12.0279 13.1874 11.7736 13 11.5861L8.41397 7.00006L13 2.41406C13.1874 2.22653 13.2928 1.97223 13.2928 1.70706C13.2928 1.4419 13.1874 1.18759 13 1.00006Z" fill="white"/>
</svg>
